<svg xmlns="http://www.w3.org/2000/svg" xmlns:xlink="http://www.w3.org/1999/xlink" viewBox="0 0 1920 1080"><defs><style>.cls-1,.cls-10,.cls-20,.cls-24,.cls-25,.cls-31{fill:none;}.cls-2{isolation:isolate;}.cls-3{clip-path:url(#clip-path);}.cls-4{opacity:0.5;mix-blend-mode:overlay;fill:url(#linear-gradient);}.cls-12,.cls-5{fill:#cf9677;}.cls-10,.cls-14,.cls-15,.cls-22,.cls-26,.cls-27,.cls-28,.cls-29,.cls-31,.cls-5{stroke:#231f20;}.cls-10,.cls-14,.cls-15,.cls-18,.cls-22,.cls-24,.cls-25,.cls-5{stroke-miterlimit:10;}.cls-10,.cls-14,.cls-15,.cls-31,.cls-5{stroke-width:1.98px;}.cls-17,.cls-6{fill:#dfbb85;}.cls-7{fill:#cfaa79;}.cls-8{fill:#faf6e1;}.cls-14,.cls-9{fill:#e5e0ca;}.cls-11,.cls-13,.cls-32,.cls-34{fill:#231f20;}.cls-13{opacity:0.1;}.cls-13,.cls-34{mix-blend-mode:multiply;}.cls-15,.cls-26{fill:#94613f;}.cls-16{fill:#707c36;}.cls-17,.cls-18,.cls-19,.cls-21{stroke:#000;stroke-width:1.94px;}.cls-17,.cls-19,.cls-20,.cls-21,.cls-26,.cls-27,.cls-28,.cls-29,.cls-31{stroke-linecap:round;stroke-linejoin:round;}.cls-18{fill:#fff;}.cls-19,.cls-28{fill:#d47a2b;}.cls-20{stroke:#43beb0;}.cls-20,.cls-24,.cls-25{stroke-width:2.97px;}.cls-21{fill:#b93e26;}.cls-22{fill:#545725;stroke-width:1.48px;}.cls-23{fill:#ce975a;}.cls-24,.cls-25{stroke:#845534;}.cls-25{stroke-dasharray:11.79 11.79;}.cls-26,.cls-27,.cls-28,.cls-29{stroke-width:1.34px;}.cls-27{fill:#bd6d2a;}.cls-29{fill:#d89557;}.cls-30{opacity:0.9;}.cls-32{font-size:22.56px;font-family:ConfigRounded-Medium, Config Rounded;}.cls-33{fill:#43beb0;}.cls-34{opacity:0.07;}</style><clipPath id="clip-path"><rect class="cls-1" width="1920" height="1080"/></clipPath><linearGradient id="linear-gradient" x1="737.3" y1="420.93" x2="737.3" y2="190.66" gradientTransform="translate(242.68 114.87) rotate(2.91)" gradientUnits="userSpaceOnUse"><stop offset="0" stop-color="#fff"/><stop offset="0.1" stop-color="#fffffe" stop-opacity="0.98"/><stop offset="0.23" stop-color="#fffefd" stop-opacity="0.92"/><stop offset="0.36" stop-color="#fefdfa" stop-opacity="0.83"/><stop offset="0.5" stop-color="#fdfcf6" stop-opacity="0.69"/><stop offset="0.65" stop-color="#fdfbf1" stop-opacity="0.52"/><stop offset="0.81" stop-color="#fcf9ea" stop-opacity="0.31"/><stop offset="0.96" stop-color="#faf7e3" stop-opacity="0.06"/><stop offset="1" stop-color="#faf6e1" stop-opacity="0"/></linearGradient></defs><title>map asset</title><g class="cls-2"><g id="Layer_1" data-name="Layer 1"><g class="cls-3"><path class="cls-4" d="M933.53,384.46l-35.78-1.82a21.77,21.77,0,0,1-20.63-22.84h0A21.76,21.76,0,0,1,900,339.17l92.93,4.72a31.34,31.34,0,0,1,29.72,32.89h0a10.09,10.09,0,0,0,9.57,10.59l47.24,2.4a27.05,27.05,0,0,1,25.65,28.4l-.35,6.84a10.09,10.09,0,0,0,9.57,10.59l78.83,4a22.42,22.42,0,0,1,21.26,23.53h0a22.43,22.43,0,0,1-23.54,21.26L1064.2,478a10.09,10.09,0,0,0-10.59,9.56h0a27.64,27.64,0,0,1-29,26.21l-42-2.13A10.09,10.09,0,0,0,972,521.17l-1.4,27.54A24.57,24.57,0,0,1,944.84,572l-82.41-4.19a23.58,23.58,0,0,1-22.36-24.74h0a23.58,23.58,0,0,1,24.75-22.36l38.59,2A10.1,10.1,0,0,0,914,513.11h0a10.09,10.09,0,0,0-9.57-10.59l-79.09-4a24.08,24.08,0,0,1-22.83-25.27h0A15.48,15.48,0,0,0,787.82,457l-52.25-2.65a23,23,0,0,1-21.78-24.12l1.89-37.3a23,23,0,0,1,24.12-21.78l18.38.93A23,23,0,0,1,780,396.17l-.4,8a10.1,10.1,0,0,0,9.57,10.59L931.63,422a10.1,10.1,0,0,0,10.59-9.57l.88-17.37A10.09,10.09,0,0,0,933.53,384.46Z"/><path class="cls-5" d="M420.14,482.18l-29.47-26-23.94,19.53.47.11c9.76.12,18.07,3.73,22.19,13.61,6.09,14.66-12.27,36.53-35.33,56.81-23.46,16.35-48.44,30.81-67.85,41.35-2.71,1.46-5.31,2.85-7.78,4.16-16.08,8.52-26.77,13.56-26.77,13.56L188,549.6l8.68-21.83S247.15,361.91,386.6,419C427.2,435.58,432.72,458.3,420.14,482.18Z"/><polygon class="cls-6" points="408.24 37.16 287.84 836.7 681.28 955.48 1181.28 863.72 1577.85 922.85 1623.7 131.8 1243.61 57.13 803.22 151.27 408.24 37.16"/><path class="cls-5" d="M1743.87,607.65l-65.21,53.86s-9.2-4.66-23.35-12.61c-1-.56-2-1.15-3.12-1.75-20.63-11.69-50.22-29.54-77.19-49.8-14.38-16-23.34-31.43-18.41-42.38,3.43-7.64,9.33-11.36,16.41-12.53h0s0,0,0,0l-20.73-21.14-13.19,45.52c-35.79-35.66-49.52-73,9.94-95.35,141-53.08,186.77,114.15,186.77,114.15Z"/><polygon class="cls-7" points="803.22 151.27 681.28 955.48 287.84 836.7 408.24 37.16 803.22 151.27"/><polygon class="cls-7" points="1243.61 57.13 1181.28 863.72 1577.85 922.85 1623.7 131.8 1243.61 57.13"/><polygon class="cls-8" points="1608.69 144.56 1564.12 902.53 1182.9 842.74 1181.33 842.5 684.63 933.39 305.79 820.61 421.21 57.04 801.03 165.71 801.04 165.71 1242.37 73.17 1608.69 144.56"/><polygon class="cls-9" points="801.03 165.71 684.63 933.39 305.79 820.61 421.21 57.04 801.03 165.71"/><polygon class="cls-9" points="1608.69 144.56 1564.12 902.53 1182.9 842.74 1242.37 73.17 1608.69 144.56"/><polygon class="cls-10" points="1608.69 144.56 1564.12 902.53 1182.9 842.74 1181.33 842.5 684.63 933.39 305.79 820.61 421.21 57.04 801.03 165.71 801.04 165.71 1242.37 73.17 1608.69 144.56"/><path class="cls-11" d="M681.22,956.49l-.23-.07-394.25-119,.12-.85L407.43,35.9,803.26,150.25,1243.6,56.12l.2,0L1624.73,131l0,.86L1578.77,924l-397.48-59.27ZM289,836,681.34,954.46l499.92-91.74.16,0,395.51,59,45.73-789.12-379-74.46L803.19,152.29l-.24-.07L409.05,38.42Z"/><path class="cls-12" d="M354.06,546.21c-28.26,24.86-63.6,47.31-69.66,51.11l-.9.56.3-1.13,2.41-9.19,12-46,11.8-45s33-21.06,57.15-20.79c9.76.12,18.07,3.73,22.19,13.61C395.48,504.06,377.12,525.93,354.06,546.21Z"/><path class="cls-11" d="M283.49,598.87A1,1,0,0,1,283,597c1.19-.74,119.3-74.07,105.49-107.26a19.54,19.54,0,0,0-12.6-11.72c-9.53-3-23.81-.62-41.3,6.88a186.62,186.62,0,0,0-24,12.48,1,1,0,0,1-1.06-1.67,189.34,189.34,0,0,1,24.24-12.62c18.2-7.8,32.56-10.14,42.7-7A21.46,21.46,0,0,1,390.3,489C404.75,523.76,289,595.68,284,598.72A1,1,0,0,1,283.49,598.87Z"/><path class="cls-13" d="M354.06,546.21c-28.26,24.86-63.6,47.31-69.66,51.11l-.6-.57-5.37-5-52.68-49.37,1.05-10.14c17.55,8.11,44.58,12.23,71.45,9.38,23.86-2.51,47.6-10.49,64.47-26,33.25-30.64,8.27-38.76,4.48-39.78,9.76.12,18.07,3.73,22.19,13.61C395.48,504.06,377.12,525.93,354.06,546.21Z"/><path class="cls-12" d="M1659.37,666.41s-6.18-4.07-15.54-10.74c-18.32-13.06-48.82-36.14-68.83-58.32-14.38-16-23.34-31.43-18.41-42.38,3.43-7.64,9.33-11.36,16.41-12.53h0c24.36-4.07,62.68,22,62.68,22l7.94,34.16,10.75,46.36.93,4Z"/><path class="cls-11" d="M1659.37,667.39a1,1,0,0,1-.54-.16c-4.85-3.18-118.56-78.35-103.14-112.66a21.44,21.44,0,0,1,14.19-12.46c24.25-6.86,64.66,20.31,66.37,21.47a1,1,0,0,1-1.11,1.64,187.18,187.18,0,0,0-23.63-13.16c-17.27-8-31.48-10.77-41.09-8a19.52,19.52,0,0,0-12.93,11.36c-6,13.43,9.67,36.7,45.41,67.28a649.36,649.36,0,0,0,57,42.92,1,1,0,0,1-.54,1.81Z"/><path class="cls-13" d="M1716.66,581.41l-62.28,63.51-2.19,2.23-8.36,8.52c-18.32-13.06-48.82-36.14-68.83-58.32-14.38-16-23.34-31.43-18.41-42.38,3.43-7.64,9.33-11.36,16.41-12.53-.81.49-20.23,12.59-.06,34.72,10.91,12,40.1,20.35,70.69,21.4C1670.82,599.5,1699.11,594.66,1716.66,581.41Z"/><path class="cls-14" d="M309.84,620.68-10.38,995.12l-30.5-285.67,53.56-52.12L172.15,502.16a5.85,5.85,0,0,1,6.78-1c49.72,25.61,94.7,71.06,117.77,96.75,6,6.62,10.46,11.94,13.21,15.25A5.82,5.82,0,0,1,309.84,620.68Z"/><path class="cls-14" d="M1967.68,777.35l-35.89,264.9a7.12,7.12,0,0,1-12.59,3.51L1620.74,676.1a7.11,7.11,0,0,1,.19-9.17c3.3-3.73,8.55-9.54,15.41-16.67h0c24.29-25.24,68.74-66.9,117.14-90.35a7.1,7.1,0,0,1,8.22,1.44l186.86,192.41h0l17.15,17.67A7.14,7.14,0,0,1,1967.68,777.35Z"/><path class="cls-13" d="M309.84,620.68-10.38,995.12l-30.5-285.67,53.56-52.12s107.27,136.1,284-59.41c6,6.62,10.46,11.94,13.21,15.25A5.82,5.82,0,0,1,309.84,620.68Z"/><path class="cls-13" d="M1967.68,777.35l-35.89,264.9a7.12,7.12,0,0,1-12.59,3.51L1620.74,676.1a7.11,7.11,0,0,1,.19-9.17c3.3-3.73,8.55-9.54,15.41-16.67h0s256.58,355.56,312.22,103.5h0l17.15,17.67A7.14,7.14,0,0,1,1967.68,777.35Z"/><path class="cls-15" d="M1546.7,424.25l-18,5.47-1.11,10.94-16.77-24.53a13.74,13.74,0,0,1-2.38-6.88l-5.15-78.07a13.8,13.8,0,0,0-12.53-12.83l-96.49-8.72a13.47,13.47,0,0,1-2.52-.46l-87.09-24.69a13.8,13.8,0,0,0-15.57,6.14l-12.6,20.84a13.83,13.83,0,0,1-10.6,6.61l-20.22,1.78a13.9,13.9,0,0,0-5.91,1.93l-33.22,20a13.81,13.81,0,0,0-6.61,10.43h0a13.8,13.8,0,0,1-23.62,8.24l-19.59-20.14a13.78,13.78,0,0,0-6.26-3.69l-68-18.55a13.8,13.8,0,0,0-8.29.33l-50.35,18.06a13.61,13.61,0,0,1-4.69.81l-64-.16a13.71,13.71,0,0,1-5.94-1.36L898.05,311.2a13.81,13.81,0,0,0-12.19.12l-46.41,23.41a13.82,13.82,0,0,0-6.22,6.33l-11.59,24a13.84,13.84,0,0,1-7.71,7l-21.33,7.76a14,14,0,0,1-5,.83c-9.26-.21-39.41-2-39.37-16.09,0-16.69,8.4-38.75,5.65-48.42-2.08-7.33-43.75-37-63.81-50.89a13.79,13.79,0,0,1-4-18.39l.45-.76a13.8,13.8,0,0,0-8.3-20.4L575.45,198.37a13.8,13.8,0,0,0-9.26.77L441.2,256a13.81,13.81,0,0,0-7.68,9.25l-7.2,29.13-1.22-.23-9,41.69a13.82,13.82,0,0,0,3.66,13.09l53.73,53.49a13.82,13.82,0,0,1,4.07,9.82l-.12,46.69a13.81,13.81,0,0,0,11.85,13.7l46.87,6.71a13.8,13.8,0,0,1,11.14,9.3l11.5,34.6a13.79,13.79,0,0,0,13.32,9.44l48.32-.79a13.8,13.8,0,0,0,10.26-4.82l18.09-21.13a13.82,13.82,0,0,1,13.29-4.54l44.4,9.22a13.8,13.8,0,0,1,8,22.15l-28.67,35.71a13.76,13.76,0,0,1-3.65,3.19L655,588l0-10.12-32.74-.08-8.71,39.49h0a13.78,13.78,0,0,0,5.33,15l76.23,53.79a13.74,13.74,0,0,1,5.17,7l9.47,29.31a13.78,13.78,0,0,0,8.41,8.72l14.67,5.35a13.83,13.83,0,0,1,6,4.31l20.55,25.54a14,14,0,0,1,2.32,4.24L773.66,806a13.8,13.8,0,0,0,9.77,9L862.7,834.6a13.81,13.81,0,0,0,11.92-2.6l36.21-28.86a13.83,13.83,0,0,1,9.8-3l72.94,6.35a13.85,13.85,0,0,0,6.55-1l83.59-35.18a13.77,13.77,0,0,0,8.25-10.46h0l6.5-30.69a14.11,14.11,0,0,1,2.87-.49L1183.4,724a13.84,13.84,0,0,0,9.17-4.24L1211,700.47a13.83,13.83,0,0,1,5.81-3.61l89.78-28.43a13.79,13.79,0,0,0,9.58-12h0l7-33.51a13.93,13.93,0,0,1,2.34-.09l124.11,5.57a13.83,13.83,0,0,0,6.22-1.17l60.64-26.93a13.78,13.78,0,0,0,7.76-9.16h0a12.79,12.79,0,0,0,.27-1.26l7.77-36.42-7.86,1.43a13.57,13.57,0,0,0-1.7-3.86L1507,526.36a13.83,13.83,0,0,1,.26-15.28l29-42.11a13.71,13.71,0,0,0,2.25-5.58h0Z"/><path class="cls-16" d="M1515.27,473.51a13.81,13.81,0,0,0-.26,15.28l15.77,24.62A13.75,13.75,0,0,1,1533,521v2.41h0l-.21,26.8a13.83,13.83,0,0,1-8.2,12.52l-60.64,26.92a13.89,13.89,0,0,1-6.22,1.18l-124.11-5.58A13.8,13.8,0,0,0,1320,603.77l3.37,9.16a13.8,13.8,0,0,1-8.78,17.93l-89.78,28.43a14,14,0,0,0-5.81,3.62l-2.28,2.37-16.14,16.88a13.83,13.83,0,0,1-9.17,4.23l-82.06,4.73a13.8,13.8,0,0,0-12.11,18.67l2,5.36a13.79,13.79,0,0,1-7.55,17.6l-83.59,35.18a13.75,13.75,0,0,1-6.55,1l-72.94-6.34a13.76,13.76,0,0,0-9.8,3l-36.22,28.86a13.76,13.76,0,0,1-11.91,2.6l-79.28-19.61a13.81,13.81,0,0,1-9.76-9L769.72,733a14.14,14.14,0,0,0-2.32-4.24l-20.56-25.54a13.8,13.8,0,0,0-6-4.31l-14.67-5.34a13.79,13.79,0,0,1-8.41-8.73l-9.46-29.3a13.94,13.94,0,0,0-5.18-7l-76.23-53.79a13.8,13.8,0,0,1,.85-23.1l62.38-37.54a13.7,13.7,0,0,0,3.65-3.18l28.67-35.72a13.79,13.79,0,0,0-8-22.14l-44.41-9.22a13.77,13.77,0,0,0-13.28,4.53l-18.1,21.13a13.78,13.78,0,0,1-10.26,4.82l-48.32.79a13.78,13.78,0,0,1-13.31-9.44l-11.51-34.6a13.79,13.79,0,0,0-11.13-9.3l-37.9-5.42-9-1.29a13.75,13.75,0,0,1-8-4.11,13.86,13.86,0,0,1-3.84-9.59l.12-46.69a13.73,13.73,0,0,0-4.06-9.81l-53.73-53.5a13.79,13.79,0,0,1-3.66-13.09l17.44-70.58a13.81,13.81,0,0,1,7.69-9.25l125-56.84a13.74,13.74,0,0,1,9.26-.78l102.77,27.34a13.81,13.81,0,0,1,8.31,20.41l-.45.75a13.8,13.8,0,0,0,4,18.4c20.06,13.91,61.72,43.55,63.81,50.88,2.23,7.83-2.84,23.8-4.85,38.45-.17,1.16-.31,2.32-.43,3.45-.23,2.24-.36,4.42-.37,6.52,0,14.13,30.11,15.88,39.37,16.09a13.72,13.72,0,0,0,5-.83l21.34-7.75a13.85,13.85,0,0,0,7.7-7l11.6-24a13.8,13.8,0,0,1,6.21-6.33l46.42-23.41a13.78,13.78,0,0,1,12.19-.12l51.19,24.58a14,14,0,0,0,5.93,1.36l64,.16a13.9,13.9,0,0,0,4.69-.81l50.35-18.06a13.65,13.65,0,0,1,8.29-.33l68,18.55a13.82,13.82,0,0,1,6.26,3.68l3.92,4,15.67,16.11a13.54,13.54,0,0,0,9.77,4.19A13.76,13.76,0,0,0,1208,314.67a13.78,13.78,0,0,1,6.61-10.42l33.22-20a13.63,13.63,0,0,1,5.91-1.93L1274,280.5a13.83,13.83,0,0,0,10.6-6.6l12.59-20.85a13.82,13.82,0,0,1,15.58-6.13l65.35,18.52h0l21.73,6.15a14.35,14.35,0,0,0,2.52.47l96.49,8.7a13.82,13.82,0,0,1,12.53,12.85l5.15,78.06a13.93,13.93,0,0,0,2.38,6.88l25.46,37.23a13.82,13.82,0,0,1,0,15.62Z"/><path class="cls-17" d="M608.6,296.5c.1-.48.19-1,.27-1.46a24.93,24.93,0,1,0-49.31-7.42c-.07.5-.13,1-.17,1.48-2.54,23.49,16.31,58.77,16.31,58.77S604.09,320,608.6,296.5Z"/><ellipse class="cls-18" cx="583.92" cy="293.26" rx="12.78" ry="12.68" transform="translate(207.02 827.03) rotate(-81.44)"/><path class="cls-19" d="M1022.92,530c.11-.48.2-1,.27-1.45a24.93,24.93,0,1,0-49.3-7.42c-.08.49-.13,1-.18,1.48C971.18,546.08,990,581.37,990,581.37S1018.41,553.44,1022.92,530Z"/><ellipse class="cls-18" cx="998.25" cy="526.75" rx="12.78" ry="12.68" transform="translate(328.78 1435.48) rotate(-81.44)"/><polyline class="cls-20" points="1476.84 372.38 1462.21 417.11 1471.46 478.26 1400.29 541.08"/><path class="cls-21" d="M1427.26,371.85c.1-.48.19-1,.27-1.46a24.93,24.93,0,1,0-49.31-7.42c-.07.49-.13,1-.17,1.48-2.54,23.49,16.31,58.77,16.31,58.77S1422.75,395.29,1427.26,371.85Z"/><ellipse class="cls-18" cx="1402.58" cy="368.61" rx="12.78" ry="12.68" transform="translate(829.33 1700.71) rotate(-81.44)"/><path class="cls-22" d="M784.45,497s-11.57-13,.06-22.46,15.74,0,15.74,0,14-10.33,24.17-.38-6.08,22.89-6.08,22.89a12.45,12.45,0,0,1,13.38,6.48c4.91,8.54-3.55,15.9-3.55,15.9s21.31,2.69,20.12,12.18-10.7,16.43-10.7,16.43,22.83,9.74,15.84,28.56-32.3,17.18-32.3,17.18,4.64,16.88-4.31,23.19-32.65-6.41-32.65-6.41,4.16,23.21-14.28,16.31c0,0-1.63,20.57-26.93,14.17s-14.17-27.46-14.17-27.46-19,7.87-30.57-6.93,10.61-25.29,10.61-25.29-4.73-9,7.44-22.65,30.18,1.65,30.18,1.65-4.82-20.58,8.38-25.29,18.52-5.23,18.52-5.23-7.43-2.13-5.81-16.89S784.45,497,784.45,497Z"/><path class="cls-22" d="M1348.58,282.19c-3.8,23.64-24.25,12.86-24.88,12.54.29.37,7.64,10.46-2.29,30.44-10.13,20.36-43.49,12.86-43.49,12.86s3.78,4.42,3.74,20.79S1259,374.5,1259,374.5s12.53,25.84-7.64,32.71-29-12-29-12-22,15.06-28.31,3.33c-5.93-11.09,6.77-19.43,8.15-20.3-1.17.64-11,5.4-25.71-6.44-15.71-12.63-3.25-30.79-3.25-30.79-14.51-11-9.43-25.74-4.55-34.18l15.67,16.11a13.54,13.54,0,0,0,9.77,4.19A13.76,13.76,0,0,0,1208,314.67a13.78,13.78,0,0,1,6.61-10.42l33.22-20a13.63,13.63,0,0,1,5.91-1.93L1274,280.5a13.83,13.83,0,0,0,10.6-6.6l12.59-20.85a13.82,13.82,0,0,1,15.58-6.13l65.35,18.52h0C1380.38,289.55,1348.58,282.19,1348.58,282.19Z"/><path class="cls-22" d="M1533,523.37h0l-.21,26.8a13.83,13.83,0,0,1-8.2,12.52l-60.64,26.92a13.89,13.89,0,0,1-6.22,1.18l-124.11-5.58A13.8,13.8,0,0,0,1320,603.77l3.37,9.16a13.8,13.8,0,0,1-8.78,17.93l-89.78,28.43a14,14,0,0,0-5.81,3.62l-2.28,2.37c-3.83-1.09-7.24-4-6.94-10.76.68-15.11,15.79-18.22,15.79-18.22s-36.72.29-35-25.39c1.71-25.46,42.51-8.49,43.24-8.19-.25-.65-10.47-26.32.1-34.07s30.2.08,30.2.08,3.92-23.38,24.3-8.34c0,0-12.25-28.47,19.22-24,0,0,3.2-23.73,34.67-18.39,30,5.08,22.75,29,22,31.26.77-1.89,8.32-19.23,26.59-7.75,0,0-2.64-25.17,25-15,0,0,11.38-17.66,30.22.07,0,0,10-26.14,31.44-2.27,0,0,4-29.73,29.64-13.28C1507.26,511.08,1528.83,495.91,1533,523.37Z"/><path class="cls-22" d="M757,317c-4.73,1.29-12.07,1.07-16.82-9.58-7.51-16.85-3.42-26.7-3.42-26.7S724,290,718.21,284.19s-2.28-17.66-2.28-17.66-32.15,17.57-36.64-5.67l-4.5-23.22S651,237,662.65,216.72c0,0-18.58,2.85-13.31-12.8,0,0-23.48,19.67-38.41-2.43,0,0-19.48,21.75-35.48-3.12,0,0-1.63,21.61-25.94,3.55,0,0-.63,20.89-20.37,21.43s-26.1-7-26.1-7,4,19.74-19.78,19.68c0,0,20.84,20.94-.1,38.31,0,0,13.35,0,10.41,13.95,0,0,19.17-8.66,19.7,14,0,0,28.45-3.56,27.83,14.79S523,334.77,523,334.77s34.8,8.79,30.7,29.68-24.43,24.9-24.43,24.9,12.72,20-.07,27.1a33.32,33.32,0,0,1-25,3s6.8,10.71,2,16.87l-9-1.29a13.75,13.75,0,0,1-8-4.11,13.86,13.86,0,0,1-3.84-9.59l.12-46.69a13.73,13.73,0,0,0-4.06-9.81l-53.73-53.5a13.79,13.79,0,0,1-3.66-13.09l17.44-70.58a13.81,13.81,0,0,1,7.69-9.25l125-56.84a13.74,13.74,0,0,1,9.26-.78l102.77,27.34a13.81,13.81,0,0,1,8.31,20.41l-.45.75a13.8,13.8,0,0,0,4,18.4c20.06,13.91,61.72,43.55,63.81,50.88C764.11,286.41,759,302.38,757,317Z"/><path class="cls-11" d="M874,798.42a14.25,14.25,0,0,1-3.49-.43l-79.28-19.61a14.75,14.75,0,0,1-10.46-9.63l-12-35.42a13,13,0,0,0-2.15-3.94l-20.56-25.54a13,13,0,0,0-5.59-4l-14.67-5.33a14.88,14.88,0,0,1-9-9.35l-9.47-29.31a12.92,12.92,0,0,0-4.8-6.53L626.3,595.53a14.79,14.79,0,0,1,.91-24.76l62.38-37.54a12.63,12.63,0,0,0,3.39-3l28.67-35.72A12.81,12.81,0,0,0,714.26,474l-44.41-9.22A12.82,12.82,0,0,0,657.52,469l-18.1,21.13a14.74,14.74,0,0,1-11,5.16l-48.32.79A14.71,14.71,0,0,1,565.84,486l-11.51-34.59A12.72,12.72,0,0,0,544,442.73L497.12,436a14.93,14.93,0,0,1-4.41-1.35,15.12,15.12,0,0,1-4.18-3.06,14.73,14.73,0,0,1-4.1-10.27l.11-46.69a12.85,12.85,0,0,0-3.77-9.11L427,312a14.85,14.85,0,0,1-3.92-14l17.44-70.59a14.7,14.7,0,0,1,8.24-9.91l125-56.84a14.73,14.73,0,0,1,9.92-.83l102.78,27.34a14.8,14.8,0,0,1,8.9,21.87l-.45.75a12.83,12.83,0,0,0,3.7,17.07c23.06,16,62.07,44,64.19,51.43,1.56,5.48-.27,14.63-2.21,24.33-1,4.78-2,9.72-2.61,14.53-.17,1.13-.31,2.28-.42,3.41-.24,2.29-.36,4.45-.37,6.42,0,13.2,29.38,14.9,38.4,15.1a12.85,12.85,0,0,0,4.64-.77l21.34-7.75a12.76,12.76,0,0,0,7.15-6.48l11.6-24a14.78,14.78,0,0,1,6.66-6.78l46.41-23.42a14.89,14.89,0,0,1,13.07-.12l51.19,24.58a13,13,0,0,0,5.5,1.26l64,.16a12.88,12.88,0,0,0,4.35-.75l50.35-18.06a14.6,14.6,0,0,1,8.89-.35l68,18.55a14.77,14.77,0,0,1,6.71,3.94l19.59,20.14a12.62,12.62,0,0,0,9.06,3.89A12.82,12.82,0,0,0,1207,314.57a14.87,14.87,0,0,1,7.09-11.17l33.21-20a14.75,14.75,0,0,1,6.34-2.07l20.22-1.79a12.81,12.81,0,0,0,9.84-6.12l12.59-20.85A14.84,14.84,0,0,1,1313,246l87.08,24.69a12.3,12.3,0,0,0,2.34.43l96.49,8.71a14.72,14.72,0,0,1,13.43,13.76l5.15,78.06a12.81,12.81,0,0,0,2.21,6.39l25.45,37.24a14.85,14.85,0,0,1,0,16.73l-29,42.11a12.76,12.76,0,0,0-.23,14.17l15.76,24.63A14.7,14.7,0,0,1,1534,521l-.22,29.23a14.82,14.82,0,0,1-8.79,13.41l-60.64,26.93a14.83,14.83,0,0,1-6.67,1.25l-124.11-5.57a12.81,12.81,0,0,0-12.59,17.22l3.37,9.16a14.78,14.78,0,0,1-9.41,19.21l-89.78,28.43a12.9,12.9,0,0,0-5.39,3.36l-18.43,19.25a14.69,14.69,0,0,1-9.83,4.53l-82,4.73a12.81,12.81,0,0,0-11.24,17.34l2,5.36a14.73,14.73,0,0,1-8.09,18.87l-83.59,35.18a14.76,14.76,0,0,1-7,1.09l-72.94-6.33a12.66,12.66,0,0,0-9.1,2.74l-36.21,28.86A14.9,14.9,0,0,1,874,798.42ZM667.29,462.54a14.18,14.18,0,0,1,3,.31l44.41,9.22a14.78,14.78,0,0,1,8.53,23.73l-28.67,35.72a15,15,0,0,1-3.9,3.41l-62.39,37.54a12.82,12.82,0,0,0-.79,21.45l76.23,53.79a14.93,14.93,0,0,1,5.55,7.54l9.46,29.3a12.87,12.87,0,0,0,7.81,8.1L741.16,698a14.86,14.86,0,0,1,6.45,4.62l20.56,25.54a15.07,15.07,0,0,1,2.49,4.55l12,35.42a12.75,12.75,0,0,0,9.06,8.34l79.27,19.61A12.9,12.9,0,0,0,882,793.66l36.21-28.86a14.61,14.61,0,0,1,10.5-3.16l72.94,6.33a12.79,12.79,0,0,0,6.09-1l83.58-35.18a12.75,12.75,0,0,0,7-16.34l-2-5.36a14.78,14.78,0,0,1,13-20l82.06-4.73a12.77,12.77,0,0,0,8.51-3.93l18.43-19.25a15,15,0,0,1,6.21-3.87l89.79-28.43a12.82,12.82,0,0,0,8.15-16.65l-3.37-9.15a14.79,14.79,0,0,1,14.54-19.89l124.11,5.58a13,13,0,0,0,5.78-1.09l60.64-26.93a12.86,12.86,0,0,0,7.61-11.61L1532,521a12.84,12.84,0,0,0-2-7l-15.77-24.63a14.77,14.77,0,0,1,.27-16.37l29-42.1a12.88,12.88,0,0,0,0-14.5l-25.46-37.23a14.89,14.89,0,0,1-2.54-7.38l-5.16-78.06a12.75,12.75,0,0,0-11.63-11.92l-96.48-8.71a14.35,14.35,0,0,1-2.7-.49l-87.09-24.69a12.85,12.85,0,0,0-14.46,5.69l-12.6,20.85a14.81,14.81,0,0,1-11.36,7.07l-20.22,1.79a12.77,12.77,0,0,0-5.48,1.79l-33.22,20a12.88,12.88,0,0,0-6.14,9.69,14.78,14.78,0,0,1-14.83,13.31,14.57,14.57,0,0,1-10.48-4.49l-19.59-20.14a12.86,12.86,0,0,0-5.81-3.42l-68-18.54a12.66,12.66,0,0,0-7.7.3l-50.35,18.06a14.78,14.78,0,0,1-5,.87l-64-.16a15,15,0,0,1-6.36-1.46l-51.19-24.58a12.87,12.87,0,0,0-11.31.11L847.9,298.05a12.79,12.79,0,0,0-5.76,5.87l-11.61,24a14.74,14.74,0,0,1-8.25,7.47l-21.34,7.76a14.76,14.76,0,0,1-5.36.89c-12.14-.27-40.37-2.49-40.34-17.08a66,66,0,0,1,.38-6.62c.11-1.16.26-2.33.43-3.49.67-4.86,1.66-9.83,2.63-14.64,1.89-9.46,3.68-18.38,2.25-23.4s-25.12-23.76-63.42-50.34a14.84,14.84,0,0,1-4.27-19.72l.45-.75A12.81,12.81,0,0,0,686,189.1L583.2,161.76a12.77,12.77,0,0,0-8.59.72l-125,56.84a12.73,12.73,0,0,0-7.14,8.59L425,298.49a12.84,12.84,0,0,0,3.4,12.15l53.73,53.5a14.86,14.86,0,0,1,4.35,10.51l-.12,46.7a12.83,12.83,0,0,0,7.18,11.54,12.91,12.91,0,0,0,3.82,1.17l46.88,6.71a14.72,14.72,0,0,1,11.93,10l11.5,34.6a12.74,12.74,0,0,0,12.37,8.76l48.32-.79a12.78,12.78,0,0,0,9.52-4.47L656,467.71A14.79,14.79,0,0,1,667.29,462.54Z"/><polyline class="cls-20" points="905.14 734.6 903.25 681.2 860.16 623.29 873.23 550.26 819.46 440.79 761.26 421.39 697.24 438.93 619.24 440.19 607.47 458.59"/><polyline class="cls-20" points="1072.24 658.66 1034.11 677.35 955.68 663.05 903.25 681.2"/><polyline class="cls-20" points="1108.84 480.24 1070.21 445.69 1082.09 383.03 1076.35 324.93 986.66 333.78 929.7 320.12"/><path class="cls-23" d="M1007.34,630.67a87.42,87.42,0,0,1-12.38-.92c-45-6.56-86.41-49.47-113.49-117.72-24.32-61.31-59.14-102.61-98-116.3-25.9-9.11-53.16-5.69-81,10.14-27.11,15.4-52.93,19.24-76.76,11.41-40-13.15-58.92-54.6-59.71-56.36L584,352.85c.16.35,16.26,35.35,48,45.68,18.27,6,38.69,2.64,60.69-9.86C725.7,369.88,758.46,366,790,377.07c44.39,15.61,83.4,60.95,109.87,127.66,11.38,28.7,26,53.47,42.29,71.65,17.57,19.61,36.29,31,55.66,33.8,32.59,4.74,66.45-14.87,100.63-58.29q9.63-12.23,18-23c40.19-51.37,60.36-77.16,82.36-87.32,24.9-11.49,48.14-.8,83.47,18.18,28.21,15.16,54.32,14.74,77.59-1.26a97.6,97.6,0,0,0,27.43-29.29l17.31,9.57a117.63,117.63,0,0,1-33.53,36c-20.54,14.11-54.24,26-98.17,2.38-35.47-19.07-50.75-24.6-65.8-17.65-17.66,8.16-38,34.23-75.08,81.55-5.61,7.17-11.6,14.84-18,23C1079.11,608.43,1043.29,630.76,1007.34,630.67Z"/><path class="cls-24" d="M575,357.27s.9,2,2.72,5.27"/><path class="cls-25" d="M584,372.5c15.9,22.65,53.09,59.05,113.53,24.71,83.42-47.39,154.4,13.41,193.16,111.11S1011.84,677.84,1106.21,558s94.84-130.63,171.38-89.5c58.8,31.59,97.11-5.72,111.71-24.7"/><path class="cls-24" d="M1392.77,439c2.11-3.08,3.17-5,3.17-5"/><polygon class="cls-26" points="851.92 678.59 826.6 725.64 847.53 727.52 868.45 729.4 851.92 678.59"/><polygon class="cls-27" points="805.1 662.02 787.13 695.42 801.98 696.76 816.84 698.09 805.1 662.02"/><polygon class="cls-28" points="940.22 264.66 883.47 370.11 930.37 374.32 977.27 378.54 940.22 264.66"/><polygon class="cls-29" points="980.94 342.69 955.62 389.74 976.54 391.62 997.47 393.5 980.94 342.69"/><polygon class="cls-26" points="1023.18 318.5 980.71 397.42 1015.81 400.57 1050.91 403.73 1023.18 318.5"/><polygon class="cls-26" points="1448.34 228.46 1405.87 307.38 1440.97 310.53 1476.07 313.69 1448.34 228.46"/><polygon class="cls-29" points="995.24 641.42 952.77 720.34 987.87 723.5 1022.97 726.65 995.24 641.42"/><polygon class="cls-29" points="1127.82 380.55 1109.84 413.95 1124.7 415.29 1139.55 416.62 1127.82 380.55"/><polygon class="cls-29" points="1476.81 291.92 1458.84 325.32 1473.69 326.65 1488.54 327.99 1476.81 291.92"/><g class="cls-30"><path class="cls-31" d="M517,736.34h0L522.09,676c0-.58-.4-.66-.57-.11l-18,57.83h0l-5.08,60.35c-.05.57.4.66.57.11l18-57.83Z"/><path class="cls-31" d="M502.93,740.88,460,725.56c-.47-.17-.36-.7.13-.68l45.53,2"/><path class="cls-31" d="M517.61,729.17l42.93,15.31c.45.16.35.7-.13.67l-45.54-1.94"/><path class="cls-31" d="M519.56,743.41l11.52,28.19c.15.39-.15.62-.38.31l-17.46-23.45"/><line class="cls-31" x1="503.91" y1="733.78" x2="503.68" y2="733.23"/><path class="cls-31" d="M501,726.63l-11.51-28.2c-.16-.37.13-.61.38-.3l17.45,23.44"/><line class="cls-31" x1="516.87" y1="736.81" x2="516.64" y2="736.26"/><line class="cls-31" x1="503.91" y1="733.78" x2="503.49" y2="734.21"/><path class="cls-31" d="M498.52,739.31l-21.28,21.78c-.29.3-.11.63.22.42l25-15.16"/><line class="cls-31" x1="517.06" y1="735.83" x2="516.64" y2="736.26"/><path class="cls-31" d="M518.08,723.69l25-15.17c.34-.21.52.13.24.42L522,730.74"/><text class="cls-32" transform="matrix(0.83, 0.16, -0.19, 0.98, 517.28, 665.48)">N</text><text class="cls-32" transform="matrix(0.83, 0.16, -0.19, 0.98, 437.01, 728.08)">W</text><text class="cls-32" transform="matrix(0.83, 0.16, -0.19, 0.98, 570.13, 754.06)">E</text><text class="cls-32" transform="matrix(0.83, 0.16, -0.19, 0.98, 487.46, 818.26)">S</text></g><g class="cls-30"><polygon class="cls-31" points="1525.32 780.97 1521.08 852.65 1299.08 822.39 1305.3 754.93 1525.32 780.97"/><line class="cls-31" x1="1303.59" y1="773.46" x2="1524.23" y2="799.44"/><line class="cls-31" x1="1310.64" y1="790.14" x2="1429.71" y2="804.15"/><line class="cls-31" x1="1309.61" y1="807.49" x2="1482.2" y2="828.78"/></g><polyline class="cls-20" points="1135.92 320.45 1121.34 359.17 1082.09 383.03"/><path class="cls-33" d="M1252.6,516.74s-10.44-22-29.57-10.93-22.44,11.24-22.44,11.24A37.7,37.7,0,0,0,1175,537.46c-8.88,17.75-9,22-.44,25.46s34.3-21.81,43.65-21.61S1256.07,542.85,1252.6,516.74Z"/><path class="cls-33" d="M675,297s-14.38-18.85-27-7.61-5.84,33.1-1.87,36.85,25.51,30.27,49.7,4.48S680.36,310.74,675,297Z"/><path class="cls-33" d="M919.08,419.52s15.62,1.82,18.14-9.29-10.08-17.9-13.8-17.74S897,390.71,893.88,414,910.56,415.8,919.08,419.52Z"/><polyline class="cls-20" points="1523.36 420.22 1490.54 431.72 1462.21 417.11"/><path class="cls-34" d="M801,167.09,684.63,934.77,305.79,822l40.5-268c26.46-22,49.76-47.13,43-63.38-5.37-12.91-17.92-15.1-31.49-12.8l63.4-419.42Z"/><path class="cls-34" d="M1556.65,554.83c-5.65,12.58,7,31.13,25.16,49.5l-17.54,298.2-381.22-59.79,59.47-769.57,366.32,71.39-23.4,397.84C1573.12,540.58,1562,543,1556.65,554.83Z"/></g></g></g></svg>